<svg xmlns="http://www.w3.org/2000/svg">
  <symbol id="prod" viewBox="0 0 18 17">
    <path d="M14.4 16.1501H3.6C1.62 16.1501 0 14.5301 0 12.5501V2.6501C0 1.6601 0.81 0.850098 1.8 0.850098H5.13C6.66 0.850098 8.1 1.5701 9 2.9201C9.27 3.2801 9.72 3.5501 10.17 3.5501H14.4C16.38 3.5501 18 5.1701 18 7.1501V12.5501C18 14.5301 16.38 16.1501 14.4 16.1501ZM1.8 2.6501V12.5501C1.8 13.5401 2.61 14.3501 3.6 14.3501H14.4C15.39 14.3501 16.2 13.5401 16.2 12.5501V7.1501C16.2 6.1601 15.39 5.3501 14.4 5.3501H10.17C9.18 5.3501 8.19 4.8101 7.56 3.9101C6.93 3.1001 6.03 2.6501 5.04 2.6501H1.8Z" />
  </symbol>
  
  <symbol id="subc" viewBox="0 0 19 14">
    <path d="M14.875 14H3.5C1.575 14 0 12.425 0 10.5V3.5C0 1.575 1.575 0 3.5 0H14.875C16.8 0 18.375 1.575 18.375 3.5V10.5C18.375 12.425 16.8 14 14.875 14ZM3.5 1.75C2.5375 1.75 1.75 2.5375 1.75 3.5V10.5C1.75 11.4625 2.5375 12.25 3.5 12.25H14.875C15.8375 12.25 16.625 11.4625 16.625 10.5V3.5C16.625 2.5375 15.8375 1.75 14.875 1.75H3.5Z"/>
    <path d="M5.25 10.5H3.5C2.975 10.5 2.625 10.15 2.625 9.625C2.625 9.1 2.975 8.75 3.5 8.75H5.25C5.775 8.75 6.125 9.1 6.125 9.625C6.125 10.15 5.775 10.5 5.25 10.5Z"/>
    <path d="M16.625 6.125H1.75C1.225 6.125 0.875 5.775 0.875 5.25C0.875 4.725 1.225 4.375 1.75 4.375H16.625C17.15 4.375 17.5 4.725 17.5 5.25C17.5 5.775 17.15 6.125 16.625 6.125Z"/>
  </symbol>

  <symbol id="seting" viewBox="0 0 18 18">
    <path d="M8.9998 11.7C7.4698 11.7 6.2998 10.53 6.2998 9.00005C6.2998 7.47005 7.4698 6.30005 8.9998 6.30005C10.5298 6.30005 11.6998 7.47005 11.6998 9.00005C11.6998 10.53 10.5298 11.7 8.9998 11.7ZM8.9998 8.10005C8.4598 8.10005 8.0998 8.46005 8.0998 9.00005C8.0998 9.54005 8.4598 9.90005 8.9998 9.90005C9.5398 9.90005 9.8998 9.54005 9.8998 9.00005C9.8998 8.46005 9.5398 8.10005 8.9998 8.10005Z"/>
    <path d="M9 18C8.01 18 7.2 17.19 7.2 16.2V16.02C7.2 15.93 7.2 15.48 6.75 15.21C6.57 15.12 6.39 15.03 6.21 14.94C5.58 14.76 5.31 15.21 5.31 15.21L5.22 15.3C4.5 16.02 3.33 16.02 2.7 15.3C1.98 14.58 1.98 13.5 2.7 12.78L2.79 12.69C2.88 12.6 3.24 12.33 3.06 11.79C2.97 11.61 2.97 11.43 2.79 11.25C2.52 10.71 1.98 10.8 1.89 10.8H1.8C0.81 10.8 0 9.99 0 9C0 8.01 0.81 7.2 1.8 7.2H1.98C2.07 7.2 2.52 7.2 2.79 6.75C2.88 6.57 2.97 6.39 3.06 6.21C3.15 5.67 2.88 5.31 2.79 5.31L2.61 5.22C1.89 4.5 1.89 3.42 2.61 2.7C3.33 1.98 4.5 1.98 5.13 2.7L5.22 2.79C5.22 2.88 5.58 3.24 6.12 3.06C6.3 2.97 6.48 2.97 6.66 2.79C7.29 2.52 7.2 1.98 7.2 1.89V1.8C7.2 0.81 8.01 0 9 0C9.99 0 10.8 0.81 10.8 1.8V1.98C10.8 2.07 10.8 2.52 11.25 2.79C11.43 2.88 11.61 2.97 11.79 3.06C12.42 3.24 12.69 2.79 12.69 2.79L12.78 2.7C13.5 1.98 14.67 1.98 15.3 2.7C16.02 3.42 16.02 4.5 15.3 5.22L15.21 5.31C15.12 5.4 14.76 5.67 14.94 6.21C15.03 6.39 15.03 6.57 15.21 6.75C15.48 7.29 16.02 7.2 16.11 7.2H16.2C17.19 7.2 18 8.01 18 9C18 9.99 17.19 10.8 16.2 10.8H16.02C15.93 10.8 15.48 10.8 15.21 11.25C15.12 11.43 15.03 11.61 14.94 11.79C14.85 12.33 15.12 12.69 15.21 12.69L15.3 12.78C16.02 13.5 16.02 14.58 15.3 15.3C14.58 16.02 13.41 16.02 12.78 15.3L12.69 15.21C12.6 15.12 12.33 14.76 11.79 14.94C11.61 15.03 11.43 15.03 11.25 15.21C10.8 15.48 10.8 15.93 10.8 16.02V16.11C10.8 17.19 9.99 18 9 18ZM5.94 13.14C6.12 13.14 6.39 13.14 6.57 13.23C6.93 13.32 7.38 13.5 7.74 13.68C8.64 14.22 8.91 15.03 9 15.66C9.09 15.03 9.36 14.22 10.26 13.68C10.62 13.5 10.98 13.32 11.43 13.23C12.42 12.96 13.23 13.32 13.77 13.77C13.32 13.23 13.05 12.42 13.23 11.43C13.32 11.07 13.5 10.62 13.68 10.26C14.22 9.36 15.03 9.09 15.66 9C15.03 8.91 14.22 8.64 13.68 7.74C13.5 7.38 13.32 7.02 13.23 6.57C12.96 5.58 13.32 4.77 13.77 4.23C13.23 4.68 12.42 4.95 11.43 4.77C11.07 4.68 10.62 4.5 10.26 4.32C9.36 3.78 9.09 2.97 9 2.34C8.91 2.97 8.64 3.78 7.74 4.32C7.38 4.5 7.02 4.68 6.57 4.77C5.58 5.04 4.77 4.68 4.23 4.23C4.68 4.77 4.95 5.58 4.77 6.57C4.68 7.02 4.5 7.38 4.32 7.74C3.78 8.64 2.97 8.91 2.34 9C2.97 9.09 3.78 9.36 4.32 10.26C4.5 10.62 4.68 10.98 4.77 11.43C5.04 12.42 4.68 13.23 4.23 13.77C4.68 13.41 5.22 13.14 5.94 13.14Z"/>
  </symbol>

  <symbol id="support" viewBox="0 0 21 21">
    <path d="M17.874 10.1111H16.3185V7.77778C16.3185 4.35556 13.9074 1.55556 10.874 1.55556C7.84069 1.55556 5.42958 4.35556 5.42958 7.77778V10.1111H3.87402V7.77778C3.87402 3.5 6.98513 0 10.874 0C14.7629 0 17.874 3.5 17.874 7.77778V10.1111Z"/>
    <path d="M4.34117 15.5555C2.4745 15.5555 0.918945 13.9999 0.918945 12.1333C0.918945 10.2666 2.4745 8.71106 4.34117 8.71106C5.50783 8.71106 6.20783 10.0333 6.20783 12.1333C6.20783 14.2333 5.50783 15.5555 4.34117 15.5555ZM4.26339 10.2666C3.25228 10.2666 2.4745 11.1222 2.4745 12.1333C2.4745 13.1444 3.25228 13.9999 4.26339 13.9999C4.41895 13.8444 4.65228 13.1444 4.65228 12.1333C4.65228 11.1222 4.41895 10.4222 4.26339 10.2666Z"/>
    <path d="M16.7856 15.5555C15.6189 15.5555 14.9189 14.2333 14.9189 12.1333C14.9189 11.3555 14.9967 10.5777 15.2301 10.0333C15.6189 8.86661 16.3967 8.71106 16.7856 8.71106C18.6523 8.71106 20.2078 10.2666 20.2078 12.1333C20.2078 13.9999 18.6523 15.5555 16.7856 15.5555ZM16.8634 10.2666C16.7078 10.4222 16.4745 11.1222 16.4745 12.1333C16.4745 13.1444 16.7078 13.8444 16.8634 13.9999C17.8745 13.9999 18.6523 13.1444 18.6523 12.1333C18.6523 11.1222 17.8745 10.2666 16.8634 10.2666Z"/>
    <path d="M13.2075 20.2222C12.7408 20.2222 12.4297 19.9111 12.4297 19.4444C12.4297 18.9778 12.7408 18.6667 13.2075 18.6667C14.9186 18.6667 16.3186 17.2667 16.3186 15.5556V14.7778C16.3186 14.3111 16.6297 14 17.0964 14C17.563 14 17.8741 14.3111 17.8741 14.7778V15.5556C17.8741 18.1222 15.7741 20.2222 13.2075 20.2222Z"/>
    <path d="M12.4296 21C13.2887 21 13.9851 20.3036 13.9851 19.4445C13.9851 18.5854 13.2887 17.8889 12.4296 17.8889C11.5705 17.8889 10.874 18.5854 10.874 19.4445C10.874 20.3036 11.5705 21 12.4296 21Z"/>
  </symbol>
</svg>