<svg width="16" height="16" viewBox="0 0 16 16" fill="none" xmlns="http://www.w3.org/2000/svg">
<path d="M11.5558 16H8.00022C7.46688 16 7.11133 15.6444 7.11133 15.1111C7.11133 14.5778 7.46688 14.2222 8.00022 14.2222H11.5558C12.5336 14.2222 13.3336 13.4222 13.3336 12.4444V3.55556C13.3336 2.57778 12.5336 1.77778 11.5558 1.77778H8.00022C7.46688 1.77778 7.11133 1.42222 7.11133 0.888889C7.11133 0.355556 7.46688 0 8.00022 0H11.5558C13.5113 0 15.1113 1.6 15.1113 3.55556V12.4444C15.1113 14.4 13.5113 16 11.5558 16Z" fill="#999999"/>
<path d="M8.00022 11.5554C7.73355 11.5554 7.55577 11.4666 7.37799 11.2888C7.02244 10.9332 7.02244 10.3999 7.37799 10.0443L9.42244 7.99989L7.37799 5.95545C7.02244 5.59989 7.02244 5.06656 7.37799 4.711C7.73355 4.35545 8.26688 4.35545 8.62244 4.711L11.2891 7.37767C11.6447 7.73322 11.6447 8.26656 11.2891 8.62211L8.62244 11.2888C8.44466 11.4666 8.26688 11.5554 8.00022 11.5554Z" fill="#999999"/>
<path d="M8.88889 8.88886H0.888889C0.355556 8.88886 0 8.53331 0 7.99997C0 7.46664 0.355556 7.11108 0.888889 7.11108H8.88889C9.42222 7.11108 9.77778 7.46664 9.77778 7.99997C9.77778 8.53331 9.42222 8.88886 8.88889 8.88886Z" fill="#999999"/>
</svg>
